<?xml version="1.0" standalone="no"?>
<!DOCTYPE svg PUBLIC "-//W3C//DTD SVG 20010904//EN"
 "http://www.w3.org/TR/2001/REC-SVG-20010904/DTD/svg10.dtd">
<svg version="1.0" xmlns="http://www.w3.org/2000/svg"
 width="200.000000pt" height="93.000000pt" viewBox="0 0 200.000000 93.000000"
 preserveAspectRatio="xMidYMid meet">
<metadata>
Created by potrace 1.14, written by Peter Selinger 2001-2017
</metadata>
<g transform="translate(0.000000,93.000000) scale(0.100000,-0.100000)"
fill="#000000" stroke="none">
<path d="M299 917 c-260 -74 -380 -396 -236 -636 64 -106 165 -165 287 -165
98 0 170 33 237 109 l47 53 59 -46 c57 -43 60 -45 74 -26 49 67 69 269 38 389
-50 189 -203 322 -383 331 -45 2 -96 -1 -123 -9z m172 -173 c111 -33 193 -155
193 -289 1 -61 -20 -151 -36 -161 -5 -3 -34 13 -64 37 l-55 43 6 46 c8 56 -15
121 -53 150 -36 29 -96 27 -127 -5 -29 -28 -34 -85 -9 -109 19 -20 29 -20 47
-1 13 13 22 10 70 -28 53 -41 54 -43 41 -69 -22 -41 -74 -68 -133 -68 -84 0
-146 46 -176 129 -48 136 23 285 155 326 59 18 76 18 141 -1z"/>
<path d="M940 824 c-57 -49 -78 -121 -60 -209 14 -66 54 -106 132 -129 29 -8
63 -22 75 -31 44 -31 38 -137 -10 -170 -25 -18 -89 -20 -120 -4 -12 6 -37 25
-54 42 l-33 31 0 -56 0 -56 46 -22 c58 -28 129 -30 172 -5 45 27 82 104 82
172 0 102 -35 146 -146 183 -73 24 -94 48 -94 102 0 69 34 108 96 108 26 0 98
-33 109 -50 14 -23 25 -7 25 35 0 44 -2 47 -42 65 -64 29 -139 27 -178 -6z"/>
<path d="M1354 832 c-17 -11 -40 -32 -52 -47 -80 -101 -93 -345 -26 -483 51
-105 157 -137 257 -79 l47 28 0 140 0 140 -77 -3 -78 -3 -3 -37 -3 -38 55 0
56 0 0 -78 c0 -75 -1 -79 -25 -90 -42 -19 -109 -15 -139 9 -49 39 -69 94 -74
203 -6 133 9 195 57 246 30 32 45 40 74 40 49 0 86 -16 125 -53 l32 -31 0 51
c0 48 -2 53 -37 74 -52 32 -146 37 -189 11z"/>
<path d="M1670 525 l0 -315 25 0 25 0 0 125 0 125 38 0 37 0 64 -125 c62 -122
64 -125 97 -125 l34 0 -71 136 -71 135 20 22 c39 43 52 83 52 162 0 84 -13
121 -56 154 -22 18 -41 21 -110 21 l-84 0 0 -315z m171 226 c21 -17 24 -27 24
-96 0 -72 -2 -78 -28 -101 -21 -18 -40 -24 -73 -24 l-44 0 0 120 0 120 49 0
c33 0 56 -6 72 -19z"/>
</g>
</svg>
